<svg width="20" height="21" viewBox="0 0 20 21" fill="none" xmlns="http://www.w3.org/2000/svg">
<mask id="mask0_4952_7580" style="mask-type:alpha" maskUnits="userSpaceOnUse" x="0" y="0" width="20" height="21">
<rect y="0.5" width="20" height="20" fill="#D9D9D9"/>
</mask>
<g mask="url(#mask0_4952_7580)">
<path d="M5.25646 18.4165C4.8409 18.4165 4.4859 18.2694 4.19146 17.975C3.89715 17.6806 3.75 17.3256 3.75 16.91V9.08963C3.75 8.67407 3.89715 8.31907 4.19146 8.02463C4.4859 7.73032 4.8409 7.58317 5.25646 7.58317H6.25V5.9165C6.25 4.87595 6.61486 3.99081 7.34458 3.26109C8.07431 2.53136 8.95944 2.1665 10 2.1665C11.0406 2.1665 11.9257 2.53136 12.6554 3.26109C13.3851 3.99081 13.75 4.87595 13.75 5.9165V7.58317H14.7435C15.1591 7.58317 15.5141 7.73032 15.8085 8.02463C16.1028 8.31907 16.25 8.67407 16.25 9.08963V16.91C16.25 17.3256 16.1028 17.6806 15.8085 17.975C15.5141 18.2694 15.1591 18.4165 14.7435 18.4165H5.25646ZM5.25646 17.1665H14.7435C14.8184 17.1665 14.8799 17.1425 14.9279 17.0944C14.976 17.0464 15 16.9849 15 16.91V9.08963C15 9.01477 14.976 8.95331 14.9279 8.90525C14.8799 8.8572 14.8184 8.83317 14.7435 8.83317H5.25646C5.1816 8.83317 5.12014 8.8572 5.07208 8.90525C5.02403 8.95331 5 9.01477 5 9.08963V16.91C5 16.9849 5.02403 17.0464 5.07208 17.0944C5.12014 17.1425 5.1816 17.1665 5.25646 17.1665ZM10 14.4582C10.4049 14.4582 10.7492 14.3164 11.0329 14.0328C11.3165 13.749 11.4583 13.4047 11.4583 12.9998C11.4583 12.595 11.3165 12.2507 11.0329 11.9669C10.7492 11.6833 10.4049 11.5415 10 11.5415C9.59514 11.5415 9.25083 11.6833 8.96708 11.9669C8.68347 12.2507 8.54167 12.595 8.54167 12.9998C8.54167 13.4047 8.68347 13.749 8.96708 14.0328C9.25083 14.3164 9.59514 14.4582 10 14.4582ZM7.5 7.58317H12.5V5.9165C12.5 5.22206 12.2569 4.63178 11.7708 4.14567C11.2847 3.65956 10.6944 3.4165 10 3.4165C9.30556 3.4165 8.71528 3.65956 8.22917 4.14567C7.74306 4.63178 7.5 5.22206 7.5 5.9165V7.58317Z" fill="#414853"/>
</g>
</svg>
