<svg width="20" height="21" viewBox="0 0 20 21" fill="none" xmlns="http://www.w3.org/2000/svg">
<mask id="mask0_4952_7585" style="mask-type:alpha" maskUnits="userSpaceOnUse" x="0" y="0" width="20" height="21">
<rect y="0.5" width="20" height="20" fill="#D9D9D9"/>
</mask>
<g mask="url(#mask0_4952_7585)">
<path d="M16.9754 11.1248H7.14685V9.87484H16.9754L15.4594 8.3588L16.3375 7.45505L19.3823 10.4998L16.3375 13.5446L15.4594 12.6409L16.9754 11.1248ZM12.6677 7.88755V4.92296C12.6677 4.8481 12.6437 4.78664 12.5956 4.73859C12.5474 4.69053 12.4859 4.6665 12.4112 4.6665H4.42247C4.34761 4.6665 4.28615 4.69053 4.2381 4.73859C4.19004 4.78664 4.16602 4.8481 4.16602 4.92296V16.0767C4.16602 16.1516 4.19004 16.213 4.2381 16.2611C4.28615 16.3091 4.34761 16.3332 4.42247 16.3332H12.4112C12.4859 16.3332 12.5474 16.3091 12.5956 16.2611C12.6437 16.213 12.6677 16.1516 12.6677 16.0767V13.1121H13.9177V16.0767C13.9177 16.4923 13.7705 16.8473 13.476 17.1417C13.1817 17.436 12.8268 17.5832 12.4112 17.5832H4.42247C4.00692 17.5832 3.65192 17.436 3.35747 17.1417C3.06317 16.8473 2.91602 16.4923 2.91602 16.0767V4.92296C2.91602 4.50741 3.06317 4.15241 3.35747 3.85796C3.65192 3.56366 4.00692 3.4165 4.42247 3.4165H12.4112C12.8268 3.4165 13.1817 3.56366 13.476 3.85796C13.7705 4.15241 13.9177 4.50741 13.9177 4.92296V7.88755H12.6677Z" fill="#F25961"/>
</g>
</svg>
